<svg width="175" height="175" viewBox="0 0 175 175" fill="none" xmlns="http://www.w3.org/2000/svg">
<path d="M12.7604 162.998C11.3604 162.998 9.96038 162.466 8.8958 161.394C6.75934 159.257 6.75934 155.794 8.8958 153.665L148.714 13.8396C150.85 11.6958 154.313 11.6958 156.443 13.8396C158.572 15.9833 158.586 19.4323 156.443 21.5688L16.625 161.401C15.5604 162.466 14.1604 163.005 12.7604 163.005V162.998ZM25.2729 122.332C24.2958 122.332 23.3041 122.07 22.4145 121.53C17.5291 118.519 14.6125 113.291 14.6125 107.552V67.448C14.6125 58.4063 21.977 51.0417 31.0187 51.0417H49.1458L100.53 10.2958C102.171 8.98332 104.417 8.72811 106.305 9.66145C108.186 10.5729 109.39 12.4833 109.39 14.5833V38.5C109.39 41.5261 106.94 43.9688 103.921 43.9688C100.902 43.9688 98.452 41.5261 98.452 38.5V25.9073L54.4687 60.798C53.4916 61.5563 52.2958 61.9792 51.0635 61.9792H31.0114C28 61.9792 25.5427 64.4365 25.5427 67.448V107.552C25.5427 109.47 26.5198 111.198 28.1385 112.219C30.7125 113.794 31.5073 117.163 29.925 119.729C28.9041 121.406 27.1031 122.332 25.2583 122.332H25.2729ZM103.928 165.886C102.718 165.886 101.522 165.485 100.53 164.704L65.5666 136.974C63.1968 135.093 62.7958 131.651 64.677 129.289C66.5583 126.941 70 126.518 72.3625 128.414L98.4666 149.107V97.9709C98.4666 94.9522 100.909 92.5022 103.935 92.5022C106.961 92.5022 109.404 94.9522 109.404 97.9709V160.417C109.404 162.517 108.194 164.427 106.305 165.339C105.547 165.703 104.73 165.886 103.921 165.886H103.928Z" fill="white"/>
</svg>
