<svg width="48" height="48" viewBox="0 0 48 48" fill="none" xmlns="http://www.w3.org/2000/svg">
<path fill-rule="evenodd" clip-rule="evenodd" d="M11.75 17.25H7C5.896 17.25 5 18.146 5 19.25V28.75C5 29.854 5.896 30.75 7 30.75H11.75L19.708 37.492C21.008 38.594 23 37.67 23 35.966V12.034C23 10.33 21.006 9.40599 19.708 10.508L11.75 17.25Z" stroke="white" stroke-width="3" stroke-linecap="round" stroke-linejoin="round"/>
<path d="M31.0742 31.956C33.3982 30.512 35.0002 27.508 35.0002 24.01C35.0002 20.512 33.3982 17.506 31.0742 16.044" stroke="white" stroke-width="3" stroke-linecap="round" stroke-linejoin="round"/>
<path d="M37.01 38.13C40.626 35.02 43 29.86 43 24.006C43 18.144 40.622 12.98 37 9.87201" stroke="white" stroke-width="3" stroke-linecap="round" stroke-linejoin="round"/>
</svg>
